<svg xmlns="http://www.w3.org/2000/svg" xmlns:xlink="http://www.w3.org/1999/xlink" width="420" height="240" viewBox="0 0 420 240">
  <defs>
    <clipPath id="clip-path">
      <rect id="長方形_16" data-name="長方形 16" width="420" height="240" transform="translate(347 2877)" fill="#fff" opacity="0.998"/>
    </clipPath>
  </defs>
  <g id="マスクグループ_2" data-name="マスクグループ 2" transform="translate(-347 -2877)" clip-path="url(#clip-path)">
    <g id="_x37__stroke" transform="translate(467 2907)">
      <g id="Shopify">
        <rect id="長方形_7" data-name="長方形 7" width="180" height="180" fill="none"/>
        <path id="Shopify_1_" d="M99.445,27.518c0-.613.006-1.215.006-1.873A41.25,41.25,0,0,0,97.3,11.621c5.321.641,8.865,6.486,11.143,13.208C105.775,25.628,102.738,26.533,99.445,27.518ZM87.7,84.724a33.6,33.6,0,0,0-13.854-3.206c-11.19,0-11.755,6.778-11.755,8.482,0,9.321,25.167,12.893,25.167,34.718,0,17.168-11.284,28.226-26.5,28.226-18.26,0-27.6-10.969-27.6-10.969l4.889-15.587s9.6,7.954,17.7,7.954a7.014,7.014,0,0,0,7.443-6.958c0-12.156-20.649-12.7-20.649-32.676,0-16.807,12.5-33.075,37.738-33.075,9.721,0,14.53,2.689,14.53,2.689Zm-4.144-78.5a5.584,5.584,0,0,1,3.09,1.007c-7.711,3.5-15.969,12.319-19.46,29.925L52.488,41.552C56.572,28.119,66.276,6.227,83.551,6.227Zm9.593,22.168c0,.354-.006.681-.006,1.007-5.857,1.749-12.217,3.651-18.592,5.557,3.579-13.331,10.288-19.772,16.157-22.2C92.177,16.335,93.144,21.471,93.144,28.395Zm27.691-7.165a6.636,6.636,0,0,0-.94.184c-.123.034-2.174.647-5.572,1.659C111,13.838,105.128,5.349,94.806,5.349c-.286,0-.583.011-.874.028C90.994,1.631,87.357,0,84.216,0,60.162,0,48.669,29.025,45.067,43.768c-9.348,2.8-15.987,4.781-16.832,5.04-5.222,1.581-5.386,1.738-6.067,6.48C21.65,58.883,8,160.768,8,160.768L114.364,180l.113-.024Zm7.616,5c3.071,2.943,6.553,6.278,6.553,6.278s14.331,1.024,15.007,1.08a1.78,1.78,0,0,1,1.631,1.462C151.771,35.955,172,167.968,172,167.968l-49.641,10.363Z" fill="#81bf37" fill-rule="evenodd"/>
      </g>
    </g>
  </g>
</svg>
