<svg xmlns="http://www.w3.org/2000/svg" xmlns:xlink="http://www.w3.org/1999/xlink" width="420" height="240" viewBox="0 0 420 240">
  <defs>
    <clipPath id="clip-path">
      <rect id="長方形_16" data-name="長方形 16" width="420" height="240" transform="translate(1151 2150)" fill="#fff"/>
    </clipPath>
  </defs>
  <g id="マスクグループ_2" data-name="マスクグループ 2" transform="translate(-1151 -2150)" clip-path="url(#clip-path)">
    <g id="_x32__stroke" transform="translate(1271 2180)">
      <g id="Wordpress_1_">
        <rect id="長方形_8" data-name="長方形 8" width="180" height="180" fill="none"/>
        <path id="Wordpress" d="M91.579,97.868,64.572,176.333a90.037,90.037,0,0,0,55.313-1.434,8.555,8.555,0,0,1-.641-1.238Zm77.4-51.048a68.835,68.835,0,0,1,.607,9.253c0,9.129-1.71,19.395-6.846,32.237l-27.491,79.477A90.007,90.007,0,0,0,168.975,46.82ZM150.756,85.456c0-11.126-4-18.827-7.419-24.817-4.562-7.419-8.843-13.7-8.843-21.111,0-8.274,6.272-15.975,15.114-15.975.4,0,.776.051,1.164.073A89.982,89.982,0,0,0,14.8,40.562c2.115.068,4.106.107,5.794.107,9.411,0,23.986-1.142,23.986-1.142,4.849-.287,5.423,6.846.574,7.414,0,0-4.877.574-10.3.861l32.773,97.483,19.7-59.07L73.308,47.8c-4.849-.287-9.444-.861-9.444-.861-4.849-.287-4.281-7.7.574-7.414,0,0,14.861,1.142,23.705,1.142,9.411,0,23.986-1.142,23.986-1.142,4.854-.287,5.423,6.846.574,7.414,0,0-4.883.574-10.3.861l32.525,96.74,8.983-29.993C147.791,102.1,150.756,93.157,150.756,85.456ZM0,90a90,90,0,0,0,50.722,81L7.791,53.37A89.7,89.7,0,0,0,0,90Z" fill="#00759d" fill-rule="evenodd"/>
      </g>
    </g>
  </g>
</svg>
